<svg width="151" height="150" viewBox="0 0 151 150" fill="none" xmlns="http://www.w3.org/2000/svg">
<circle cx="75.175" cy="75" r="74.5" fill="white" stroke="#0066FF"/>
<mask id="path-2-inside-1_2_2138" fill="white">
<path d="M104.958 76.9643C104.508 72.0393 103.766 71.0802 103.486 70.7194C102.842 69.8858 101.812 69.341 100.722 68.7694C100.661 68.7377 100.607 68.6923 100.567 68.6371C100.526 68.5818 100.499 68.5181 100.488 68.451C100.477 68.3839 100.482 68.3151 100.503 68.2503C100.524 68.1854 100.56 68.1262 100.608 68.0772C100.81 67.8776 100.965 67.6377 101.063 67.3741C101.161 67.1105 101.199 66.8294 101.175 66.5501C101.128 66.0548 100.891 65.5948 100.513 65.2614C100.134 64.928 99.6409 64.7454 99.1307 64.75H97.1804C97.0968 64.7505 97.0133 64.7558 96.9304 64.7658C96.8734 64.7418 96.8144 64.7226 96.7541 64.7086C95.5989 62.3283 94.0174 59.0694 90.7394 57.4789C85.8775 55.1219 76.9212 55 75.1709 55C73.4206 55 64.4643 55.1219 59.6086 57.4753C56.3306 59.0657 54.7492 62.3247 53.594 64.7049L53.584 64.7244C53.5264 64.7323 53.4698 64.7462 53.4152 64.7658C53.3323 64.7558 53.2488 64.7505 53.1652 64.75H51.2111C50.7009 64.7454 50.2076 64.928 49.829 65.2614C49.4503 65.5948 49.2141 66.0548 49.1671 66.5501C49.1449 66.8288 49.1846 67.1088 49.2837 67.3711C49.3827 67.6334 49.5387 67.8717 49.7409 68.0699C49.7893 68.1188 49.8253 68.1781 49.8462 68.243C49.8671 68.3078 49.8722 68.3765 49.8612 68.4437C49.8501 68.5108 49.8233 68.5745 49.7826 68.6298C49.742 68.685 49.6888 68.7303 49.6271 68.7621C48.537 69.3374 47.5018 69.8822 46.863 70.7121C46.5829 71.0777 45.8428 72.032 45.3915 76.957C45.1415 79.7284 45.104 82.5974 45.3003 84.445C45.7116 88.2841 46.4829 90.6046 46.5154 90.7008C46.6338 91.0512 46.8517 91.3617 47.1438 91.5962C47.4359 91.8307 47.7902 91.9796 48.1657 92.0256V92.05C48.1657 92.5672 48.3764 93.0632 48.7516 93.4289C49.1267 93.7946 49.6355 94 50.166 94H57.167C57.6975 94 58.2063 93.7946 58.5814 93.4289C58.9566 93.0632 59.1673 92.5672 59.1673 92.05C60.2437 92.05 60.9926 91.8623 61.7864 91.6624C62.9326 91.3614 64.1041 91.1611 65.287 91.064C69.1013 90.7094 72.8943 90.5875 75.1709 90.5875C77.4012 90.5875 81.3618 90.7094 85.1824 91.064C86.3699 91.1613 87.546 91.3624 88.6966 91.6649C89.4568 91.855 90.1781 92.0305 91.177 92.0488C91.177 92.566 91.3878 93.0619 91.7629 93.4276C92.138 93.7933 92.6468 93.9988 93.1773 93.9988H100.178C100.709 93.9988 101.218 93.7933 101.593 93.4276C101.968 93.0619 102.179 92.566 102.179 92.0488V92.0342C102.555 91.989 102.91 91.8405 103.203 91.6059C103.496 91.3714 103.715 91.0604 103.834 90.7094C103.866 90.6131 104.638 88.2926 105.049 84.4535C105.245 82.6047 105.21 79.7406 104.958 76.9643ZM57.2095 66.3722C58.2097 64.3003 59.3536 61.9554 61.3901 60.967C64.3331 59.5386 70.4327 58.8951 75.1709 58.8951C79.9091 58.8951 86.0088 59.5338 88.9517 60.967C90.9882 61.9554 92.1272 64.3015 93.1323 66.3722L93.2573 66.6366C93.3304 66.7872 93.3627 66.9535 93.3512 67.1197C93.3396 67.2859 93.2846 67.4464 93.1913 67.586C93.098 67.7256 92.9697 67.8395 92.8184 67.917C92.6671 67.9944 92.498 68.0328 92.3272 68.0284C88.1728 67.9187 79.4215 67.5677 75.1709 67.5677C70.9203 67.5677 62.169 67.9273 58.0084 68.037C57.8376 68.0413 57.6685 68.0029 57.5172 67.9255C57.3659 67.848 57.2375 67.7341 57.1442 67.5945C57.051 67.455 56.9959 67.2944 56.9844 67.1282C56.9728 66.962 57.0051 66.7957 57.0782 66.6452C57.122 66.555 57.1683 66.4636 57.2095 66.3722ZM58.701 76.0771C56.5504 76.3294 54.3861 76.4539 52.22 76.45C50.8948 76.45 49.5284 76.0844 49.2746 74.9339C49.1008 74.16 49.1196 73.7249 49.2133 73.2873C49.2921 72.9156 49.4171 72.6451 50.0422 72.55C51.6674 72.3062 52.5763 72.6122 55.2367 73.3763C57.0007 73.8821 58.2734 74.5561 58.9985 75.0899C59.3623 75.3531 59.1686 76.0405 58.701 76.0771ZM86.3776 86.0708C84.7323 86.2536 81.4418 86.1866 75.2084 86.1866C68.975 86.1866 65.6858 86.2536 64.0405 86.0708C62.3428 85.8868 60.1787 84.3219 61.6564 82.9277C62.6403 82.0087 64.9356 81.3213 67.9923 80.935C71.049 80.5487 72.343 80.35 75.1959 80.35C78.0488 80.35 79.2115 80.4719 82.3995 80.9362C85.5874 81.4006 87.9965 82.0965 88.7354 82.9289C90.0831 84.4206 88.0741 85.877 86.3776 86.0781V86.0708ZM101.067 74.9327C100.817 76.088 99.442 76.4488 98.1218 76.4488C95.9142 76.4493 93.7085 76.3248 91.5158 76.0758C91.1333 76.0405 90.9557 75.386 91.3433 75.0887C92.0571 74.5414 93.3436 73.8809 95.1051 73.3751C97.7655 72.6109 99.2995 72.305 100.617 72.5598C100.938 72.6219 101.108 72.9583 101.128 73.1691C101.217 73.7562 101.196 74.354 101.067 74.9339V74.9327Z"/>
</mask>
<path d="M104.958 76.9643C104.508 72.0393 103.766 71.0802 103.486 70.7194C102.842 69.8858 101.812 69.341 100.722 68.7694C100.661 68.7377 100.607 68.6923 100.567 68.6371C100.526 68.5818 100.499 68.5181 100.488 68.451C100.477 68.3839 100.482 68.3151 100.503 68.2503C100.524 68.1854 100.56 68.1262 100.608 68.0772C100.81 67.8776 100.965 67.6377 101.063 67.3741C101.161 67.1105 101.199 66.8294 101.175 66.5501C101.128 66.0548 100.891 65.5948 100.513 65.2614C100.134 64.928 99.6409 64.7454 99.1307 64.75H97.1804C97.0968 64.7505 97.0133 64.7558 96.9304 64.7658C96.8734 64.7418 96.8144 64.7226 96.7541 64.7086C95.5989 62.3283 94.0174 59.0694 90.7394 57.4789C85.8775 55.1219 76.9212 55 75.1709 55C73.4206 55 64.4643 55.1219 59.6086 57.4753C56.3306 59.0657 54.7492 62.3247 53.594 64.7049L53.584 64.7244C53.5264 64.7323 53.4698 64.7462 53.4152 64.7658C53.3323 64.7558 53.2488 64.7505 53.1652 64.75H51.2111C50.7009 64.7454 50.2076 64.928 49.829 65.2614C49.4503 65.5948 49.2141 66.0548 49.1671 66.5501C49.1449 66.8288 49.1846 67.1088 49.2837 67.3711C49.3827 67.6334 49.5387 67.8717 49.7409 68.0699C49.7893 68.1188 49.8253 68.1781 49.8462 68.243C49.8671 68.3078 49.8722 68.3765 49.8612 68.4437C49.8501 68.5108 49.8233 68.5745 49.7826 68.6298C49.742 68.685 49.6888 68.7303 49.6271 68.7621C48.537 69.3374 47.5018 69.8822 46.863 70.7121C46.5829 71.0777 45.8428 72.032 45.3915 76.957C45.1415 79.7284 45.104 82.5974 45.3003 84.445C45.7116 88.2841 46.4829 90.6046 46.5154 90.7008C46.6338 91.0512 46.8517 91.3617 47.1438 91.5962C47.4359 91.8307 47.7902 91.9796 48.1657 92.0256V92.05C48.1657 92.5672 48.3764 93.0632 48.7516 93.4289C49.1267 93.7946 49.6355 94 50.166 94H57.167C57.6975 94 58.2063 93.7946 58.5814 93.4289C58.9566 93.0632 59.1673 92.5672 59.1673 92.05C60.2437 92.05 60.9926 91.8623 61.7864 91.6624C62.9326 91.3614 64.1041 91.1611 65.287 91.064C69.1013 90.7094 72.8943 90.5875 75.1709 90.5875C77.4012 90.5875 81.3618 90.7094 85.1824 91.064C86.3699 91.1613 87.546 91.3624 88.6966 91.6649C89.4568 91.855 90.1781 92.0305 91.177 92.0488C91.177 92.566 91.3878 93.0619 91.7629 93.4276C92.138 93.7933 92.6468 93.9988 93.1773 93.9988H100.178C100.709 93.9988 101.218 93.7933 101.593 93.4276C101.968 93.0619 102.179 92.566 102.179 92.0488V92.0342C102.555 91.989 102.91 91.8405 103.203 91.6059C103.496 91.3714 103.715 91.0604 103.834 90.7094C103.866 90.6131 104.638 88.2926 105.049 84.4535C105.245 82.6047 105.21 79.7406 104.958 76.9643ZM57.2095 66.3722C58.2097 64.3003 59.3536 61.9554 61.3901 60.967C64.3331 59.5386 70.4327 58.8951 75.1709 58.8951C79.9091 58.8951 86.0088 59.5338 88.9517 60.967C90.9882 61.9554 92.1272 64.3015 93.1323 66.3722L93.2573 66.6366C93.3304 66.7872 93.3627 66.9535 93.3512 67.1197C93.3396 67.2859 93.2846 67.4464 93.1913 67.586C93.098 67.7256 92.9697 67.8395 92.8184 67.917C92.6671 67.9944 92.498 68.0328 92.3272 68.0284C88.1728 67.9187 79.4215 67.5677 75.1709 67.5677C70.9203 67.5677 62.169 67.9273 58.0084 68.037C57.8376 68.0413 57.6685 68.0029 57.5172 67.9255C57.3659 67.848 57.2375 67.7341 57.1442 67.5945C57.051 67.455 56.9959 67.2944 56.9844 67.1282C56.9728 66.962 57.0051 66.7957 57.0782 66.6452C57.122 66.555 57.1683 66.4636 57.2095 66.3722ZM58.701 76.0771C56.5504 76.3294 54.3861 76.4539 52.22 76.45C50.8948 76.45 49.5284 76.0844 49.2746 74.9339C49.1008 74.16 49.1196 73.7249 49.2133 73.2873C49.2921 72.9156 49.4171 72.6451 50.0422 72.55C51.6674 72.3062 52.5763 72.6122 55.2367 73.3763C57.0007 73.8821 58.2734 74.5561 58.9985 75.0899C59.3623 75.3531 59.1686 76.0405 58.701 76.0771ZM86.3776 86.0708C84.7323 86.2536 81.4418 86.1866 75.2084 86.1866C68.975 86.1866 65.6858 86.2536 64.0405 86.0708C62.3428 85.8868 60.1787 84.3219 61.6564 82.9277C62.6403 82.0087 64.9356 81.3213 67.9923 80.935C71.049 80.5487 72.343 80.35 75.1959 80.35C78.0488 80.35 79.2115 80.4719 82.3995 80.9362C85.5874 81.4006 87.9965 82.0965 88.7354 82.9289C90.0831 84.4206 88.0741 85.877 86.3776 86.0781V86.0708ZM101.067 74.9327C100.817 76.088 99.442 76.4488 98.1218 76.4488C95.9142 76.4493 93.7085 76.3248 91.5158 76.0758C91.1333 76.0405 90.9557 75.386 91.3433 75.0887C92.0571 74.5414 93.3436 73.8809 95.1051 73.3751C97.7655 72.6109 99.2995 72.305 100.617 72.5598C100.938 72.6219 101.108 72.9583 101.128 73.1691C101.217 73.7562 101.196 74.354 101.067 74.9339V74.9327Z" fill="#0066FF"/>
<path d="M104.958 76.9643L105.954 76.8737L105.954 76.8733L104.958 76.9643ZM103.486 70.7194L102.695 71.3307L102.696 71.3326L103.486 70.7194ZM100.722 68.7694L101.187 67.8838L101.18 67.8806L100.722 68.7694ZM100.608 68.0772L99.9053 67.366L99.8971 67.3743L100.608 68.0772ZM101.175 66.5501L102.171 66.4635L102.17 66.4556L101.175 66.5501ZM99.1307 64.75V65.75L99.1396 65.75L99.1307 64.75ZM97.1804 64.75V63.75L97.1746 63.75L97.1804 64.75ZM96.9304 64.7658L96.5409 65.6869L96.7863 65.7907L97.0509 65.7586L96.9304 64.7658ZM96.7541 64.7086L95.8544 65.1452L96.0628 65.5745L96.5275 65.6826L96.7541 64.7086ZM90.7394 57.4789L91.176 56.5792L91.1757 56.5791L90.7394 57.4789ZM59.6086 57.4753L59.1725 56.5754L59.1721 56.5756L59.6086 57.4753ZM53.594 64.7049L54.4838 65.1613L54.4888 65.1515L54.4936 65.1415L53.594 64.7049ZM53.584 64.7244L53.7198 65.7151L54.236 65.6444L54.4738 65.1808L53.584 64.7244ZM53.4152 64.7658L53.2947 65.7586L53.5304 65.7872L53.7539 65.7068L53.4152 64.7658ZM53.1652 64.75L53.1709 63.75H53.1652V64.75ZM51.2111 64.75L51.2022 65.75H51.2111V64.75ZM49.1671 66.5501L48.1716 66.4556L48.1708 66.4631L48.1702 66.4707L49.1671 66.5501ZM49.7409 68.0699L50.4522 67.367L50.4465 67.3612L50.4407 67.3556L49.7409 68.0699ZM49.6271 68.7621L49.1689 67.8732L49.1605 67.8777L49.6271 68.7621ZM46.863 70.7121L46.0706 70.1022L46.0691 70.1041L46.863 70.7121ZM45.3915 76.957L44.3957 76.8657L44.3956 76.8671L45.3915 76.957ZM45.3003 84.445L44.3059 84.5506L44.306 84.5515L45.3003 84.445ZM46.5154 90.7008L45.568 91.0207L45.568 91.0209L46.5154 90.7008ZM48.1657 92.0256H49.1657V91.1408L48.2874 91.0331L48.1657 92.0256ZM48.1657 92.05H47.1657H48.1657ZM59.1673 92.05V91.05H58.1673V92.05H59.1673ZM61.7864 91.6624L62.0306 92.6322L62.0405 92.6296L61.7864 91.6624ZM65.287 91.064L65.3687 92.0607L65.3795 92.0597L65.287 91.064ZM85.1824 91.064L85.0899 92.0598L85.1007 92.0607L85.1824 91.064ZM88.6966 91.6649L88.4424 92.6321L88.454 92.635L88.6966 91.6649ZM91.177 92.0488H92.177V91.0669L91.1953 91.049L91.177 92.0488ZM102.179 92.0342L102.059 91.0413L101.179 91.147V92.0342H102.179ZM103.834 90.7094L104.781 91.0298L104.781 91.0292L103.834 90.7094ZM105.049 84.4535L106.043 84.5601L106.043 84.5591L105.049 84.4535ZM57.2095 66.3722L56.3089 65.9374L56.3034 65.949L56.2981 65.9608L57.2095 66.3722ZM61.3901 60.967L61.8268 61.8666L61.8268 61.8666L61.3901 60.967ZM88.9517 60.967L88.5138 61.8661L88.5151 61.8666L88.9517 60.967ZM93.1323 66.3722L94.0364 65.9448L94.0319 65.9355L93.1323 66.3722ZM93.2573 66.6366L92.3532 67.064L92.3578 67.0734L93.2573 66.6366ZM92.3272 68.0284L92.3008 69.0281L92.3017 69.0281L92.3272 68.0284ZM58.0084 68.037L58.0339 69.0366L58.0347 69.0366L58.0084 68.037ZM57.0782 66.6452L57.9778 67.082L57.9779 67.0817L57.0782 66.6452ZM58.701 76.0771L58.623 75.0801L58.6037 75.0816L58.5845 75.0839L58.701 76.0771ZM52.22 76.45L52.2218 75.45H52.22V76.45ZM49.2746 74.9339L50.2511 74.7185L50.2503 74.7148L49.2746 74.9339ZM49.2133 73.2873L50.1911 73.4969L50.1916 73.4946L49.2133 73.2873ZM50.0422 72.55L49.8939 71.5611L49.8919 71.5614L50.0422 72.55ZM55.2367 73.3763L54.9607 74.3375L54.9611 74.3376L55.2367 73.3763ZM58.9985 75.0899L58.4057 75.8952L58.4123 75.9L58.9985 75.0899ZM86.3776 86.0708H87.3776V84.9535L86.2671 85.0769L86.3776 86.0708ZM64.0405 86.0708L64.151 85.0769L64.1483 85.0766L64.0405 86.0708ZM61.6564 82.9277L60.9738 82.1968L60.9701 82.2003L61.6564 82.9277ZM88.7354 82.9289L87.9875 83.5927L87.9934 83.5992L88.7354 82.9289ZM86.3776 86.0781H85.3776V87.2037L86.4953 87.0712L86.3776 86.0781ZM101.067 74.9327H102.067L100.09 74.7211L101.067 74.9327ZM98.1218 76.4488V75.4488H98.1216L98.1218 76.4488ZM91.5158 76.0758L91.6286 75.0822L91.6182 75.081L91.6078 75.0801L91.5158 76.0758ZM91.3433 75.0887L90.7349 74.295L90.7345 74.2953L91.3433 75.0887ZM95.1051 73.3751L95.3811 74.3363L95.3812 74.3362L95.1051 73.3751ZM100.617 72.5598L100.807 71.578L100.807 71.5779L100.617 72.5598ZM101.128 73.1691L100.133 73.2636L100.136 73.2907L100.14 73.3177L101.128 73.1691ZM101.067 74.9339H100.067L102.043 75.1505L101.067 74.9339ZM105.954 76.8733C105.497 71.8797 104.731 70.6916 104.276 70.1062L102.696 71.3326C102.802 71.4688 103.518 72.199 103.962 77.0553L105.954 76.8733ZM104.278 70.1082C103.475 69.0686 102.226 68.429 101.187 67.8838L100.258 69.6551C101.398 70.2531 102.21 70.703 102.695 71.3307L104.278 70.1082ZM101.18 67.8806C101.254 67.9187 101.321 67.9743 101.372 68.0449L99.7608 69.2292C99.894 69.4104 100.067 69.5566 100.264 69.6583L101.18 67.8806ZM101.372 68.0449C101.424 68.1157 101.46 68.199 101.475 68.2888L99.5014 68.6131C99.5382 68.8372 99.6276 69.048 99.7608 69.2292L101.372 68.0449ZM101.475 68.2888C101.49 68.3786 101.483 68.4705 101.455 68.5565L99.5512 67.944C99.4817 68.1598 99.4646 68.3891 99.5014 68.6131L101.475 68.2888ZM101.455 68.5565C101.427 68.6425 101.38 68.7187 101.32 68.7801L99.8971 67.3743C99.7397 67.5336 99.6205 67.7283 99.5512 67.944L101.455 68.5565ZM101.311 68.7883C101.616 68.4872 101.852 68.1236 102.001 67.7218L100.126 67.0264C100.079 67.1519 100.005 67.268 99.9053 67.3661L101.311 68.7883ZM102.001 67.7218C102.15 67.32 102.208 66.8906 102.171 66.4635L100.178 66.6367C100.19 66.7683 100.172 66.9011 100.126 67.0264L102.001 67.7218ZM102.17 66.4556C102.099 65.7031 101.74 65.0099 101.174 64.5109L99.8519 66.0119C100.043 66.1798 100.157 66.4065 100.179 66.6446L102.17 66.4556ZM101.174 64.5109C100.608 64.0126 99.8752 63.7433 99.1217 63.75L99.1396 65.75C99.4065 65.7476 99.6605 65.8433 99.8519 66.0119L101.174 64.5109ZM99.1307 63.75H97.1804V65.75H99.1307V63.75ZM97.1746 63.75C97.0527 63.7507 96.9309 63.7584 96.8098 63.7731L97.0509 65.7586C97.0957 65.7531 97.1409 65.7502 97.1862 65.75L97.1746 63.75ZM97.3198 63.8448C97.2101 63.7984 97.0966 63.7615 96.9806 63.7346L96.5275 65.6826C96.5323 65.6837 96.5368 65.6851 96.5409 65.6869L97.3198 63.8448ZM97.6537 64.2719C96.5202 61.9363 94.8105 58.3427 91.176 56.5792L90.3029 58.3786C93.2244 59.7961 94.6776 62.7204 95.8544 65.1452L97.6537 64.2719ZM91.1757 56.5791C88.5795 55.3205 84.978 54.6882 81.8937 54.3611C78.7797 54.0309 76.0645 54 75.1709 54V56C76.0275 56 78.6657 56.03 81.6828 56.35C84.7298 56.6731 88.0374 57.2803 90.3032 58.3788L91.1757 56.5791ZM75.1709 54C74.2773 54 71.5622 54.0309 68.449 54.3607C65.3656 54.6873 61.7656 55.3186 59.1725 56.5754L60.0448 58.3752C62.3074 57.2786 65.6133 56.6722 68.6596 56.3495C71.6761 56.03 74.3143 56 75.1709 56V54ZM59.1721 56.5756C55.5376 58.3391 53.8279 61.9327 52.6943 64.2683L54.4936 65.1415C55.6704 62.7167 57.1237 59.7924 60.0451 58.375L59.1721 56.5756ZM52.7042 64.2485L52.6942 64.268L54.4738 65.1808L54.4838 65.1613L52.7042 64.2485ZM53.4481 63.7337C53.3215 63.751 53.197 63.7816 53.0765 63.8249L53.7539 65.7068C53.7426 65.7108 53.7312 65.7136 53.7198 65.7151L53.4481 63.7337ZM53.5357 63.7731C53.4147 63.7584 53.2929 63.7507 53.1709 63.75L53.1594 65.75C53.2046 65.7502 53.2498 65.7531 53.2947 65.7586L53.5357 63.7731ZM53.1652 63.75H51.2111V65.75H53.1652V63.75ZM51.2201 63.75C50.4666 63.7433 49.7339 64.0126 49.1681 64.5109L50.4899 66.0119C50.6813 65.8433 50.9353 65.7476 51.2022 65.75L51.2201 63.75ZM49.1681 64.5109C48.6015 65.0099 48.243 65.7031 48.1716 66.4556L50.1626 66.6446C50.1852 66.4065 50.2992 66.1798 50.4899 66.0119L49.1681 64.5109ZM48.1702 66.4707C48.1363 66.8967 48.1972 67.3245 48.3482 67.7243L50.2192 67.0179C50.1721 66.8931 50.1535 66.7608 50.1639 66.6295L48.1702 66.4707ZM48.3482 67.7243C48.4991 68.1241 48.736 68.4853 49.0411 68.7842L50.4407 67.3556C50.3414 67.2582 50.2664 67.1427 50.2192 67.0179L48.3482 67.7243ZM49.0296 68.7727C48.9689 68.7114 48.9219 68.6352 48.8943 68.5492L50.7982 67.9367C50.7288 67.721 50.6096 67.5263 50.4522 67.367L49.0296 68.7727ZM48.8943 68.5492C48.8666 68.4632 48.8596 68.3713 48.8744 68.2815L50.8479 68.6058C50.8848 68.3817 50.8676 68.1525 50.7982 67.9367L48.8943 68.5492ZM48.8744 68.2815C48.8892 68.1917 48.9249 68.1083 48.9768 68.0376L50.5885 69.2219C50.7217 69.0407 50.8111 68.8299 50.8479 68.6058L48.8744 68.2815ZM48.9768 68.0376C49.0287 67.967 49.095 67.9114 49.169 67.8733L50.0853 69.651C50.2826 69.5493 50.4554 69.4031 50.5885 69.2219L48.9768 68.0376ZM49.1605 67.8777C48.126 68.4236 46.8689 69.065 46.0706 70.1022L47.6554 71.3221C48.1348 70.6993 48.948 70.2512 50.0938 69.6465L49.1605 67.8777ZM46.0691 70.1041C45.6197 70.6908 44.8536 71.869 44.3957 76.8657L46.3874 77.0483C46.8321 72.1951 47.5462 71.4647 47.6569 71.3202L46.0691 70.1041ZM44.3956 76.8671C44.1424 79.6737 44.1001 82.6137 44.3059 84.5506L46.2947 84.3394C46.1079 82.581 46.1406 79.7832 46.3875 77.0469L44.3956 76.8671ZM44.306 84.5515C44.7266 88.4777 45.5173 90.8706 45.568 91.0207L47.4629 90.381C47.4486 90.3386 46.6965 88.0904 46.2946 84.3385L44.306 84.5515ZM45.568 91.0209C45.7483 91.5545 46.0789 92.0237 46.5178 92.376L47.7698 90.8164C47.6245 90.6997 47.5193 90.5479 47.4628 90.3808L45.568 91.0209ZM46.5178 92.376C46.9564 92.7281 47.4858 92.9497 48.044 93.0182L48.2874 91.0331C48.0947 91.0094 47.9154 90.9332 47.7698 90.8164L46.5178 92.376ZM47.1657 92.0256V92.05H49.1657V92.0256H47.1657ZM47.1657 92.05C47.1657 92.8407 47.4881 93.5938 48.0535 94.1449L49.4496 92.7128C49.2647 92.5326 49.1657 92.2936 49.1657 92.05H47.1657ZM48.0535 94.1449C48.618 94.6952 49.3784 95 50.166 95V93C49.8926 93 49.6354 92.8939 49.4496 92.7128L48.0535 94.1449ZM50.166 95H57.167V93H50.166V95ZM57.167 95C57.9546 95 58.715 94.6952 59.2795 94.1449L57.8834 92.7128C57.6976 92.8939 57.4404 93 57.167 93V95ZM59.2795 94.1449C59.8448 93.5938 60.1673 92.8407 60.1673 92.05H58.1673C58.1673 92.2936 58.0683 92.5326 57.8834 92.7128L59.2795 94.1449ZM59.1673 93.05C60.3762 93.05 61.2276 92.8343 62.0306 92.6322L61.5423 90.6927C60.7575 90.8903 60.1112 91.05 59.1673 91.05V93.05ZM62.0405 92.6296C63.1301 92.3434 64.244 92.153 65.3687 92.0607L65.2052 90.0674C63.9642 90.1692 62.7351 90.3793 61.5324 90.6953L62.0405 92.6296ZM65.3795 92.0597C69.1597 91.7083 72.9216 91.5875 75.1709 91.5875V89.5875C72.867 89.5875 69.0429 89.7105 65.1944 90.0683L65.3795 92.0597ZM75.1709 91.5875C77.3752 91.5875 81.3046 91.7084 85.0899 92.0598L85.2748 90.0683C81.4191 89.7104 77.4273 89.5875 75.1709 89.5875V91.5875ZM85.1007 92.0607C86.23 92.1532 87.3484 92.3444 88.4424 92.632L88.9509 90.6977C87.7436 90.3804 86.5097 90.1694 85.264 90.0674L85.1007 92.0607ZM88.454 92.635C89.2241 92.8276 90.0388 93.0281 91.1587 93.0486L91.1953 91.049C90.3174 91.0329 89.6894 90.8824 88.9393 90.6948L88.454 92.635ZM90.177 92.0488C90.177 92.8395 90.4995 93.5925 91.0648 94.1437L92.4609 92.7116C92.276 92.5314 92.177 92.2924 92.177 92.0488H90.177ZM91.0648 94.1437C91.6293 94.694 92.3897 94.9988 93.1773 94.9988V92.9988C92.9039 92.9988 92.6467 92.8927 92.4609 92.7116L91.0648 94.1437ZM93.1773 94.9988H100.178V92.9988H93.1773V94.9988ZM100.178 94.9988C100.966 94.9988 101.726 94.694 102.291 94.1437L100.895 92.7116C100.709 92.8927 100.452 92.9988 100.178 92.9988V94.9988ZM102.291 94.1437C102.856 93.5925 103.179 92.8395 103.179 92.0488H101.179C101.179 92.2924 101.08 92.5314 100.895 92.7116L102.291 94.1437ZM103.179 92.0488V92.0342H101.179V92.0488H103.179ZM102.298 93.027C102.857 92.9599 103.388 92.7388 103.828 92.3866L102.579 90.8252C102.433 90.9421 102.253 91.0181 102.059 91.0413L102.298 93.027ZM103.828 92.3866C104.269 92.0343 104.6 91.5644 104.781 91.0298L102.887 90.389C102.83 90.5565 102.724 90.7085 102.579 90.8252L103.828 92.3866ZM104.781 91.0292C104.832 90.8791 105.623 88.4862 106.043 84.5601L104.055 84.347C103.653 88.099 102.901 90.3471 102.886 90.3895L104.781 91.0292ZM106.043 84.5591C106.249 82.6214 106.21 79.6864 105.954 76.8737L103.962 77.0549C104.211 79.7949 104.241 82.5879 104.055 84.348L106.043 84.5591ZM58.1101 66.8069C58.6153 65.7602 59.12 64.7252 59.7354 63.8295C60.3479 62.938 61.023 62.2567 61.8268 61.8666L60.9535 60.0674C59.7207 60.6657 58.8056 61.651 58.0869 62.697C57.3712 63.7388 56.8038 64.9122 56.3089 65.9374L58.1101 66.8069ZM61.8268 61.8666C63.1503 61.2243 65.281 60.7224 67.7426 60.3862C70.1782 60.0536 72.8421 59.8951 75.1709 59.8951V57.8951C72.7615 57.8951 70.0065 58.0584 67.472 58.4046C64.9634 58.7473 62.5729 59.2814 60.9535 60.0674L61.8268 61.8666ZM75.1709 59.8951C77.5 59.8951 80.164 60.0524 82.5994 60.3844C85.061 60.72 87.191 61.2218 88.5138 61.866L89.3895 60.068C87.7694 59.2789 85.3781 58.7448 82.8696 58.4028C80.3349 58.0572 77.58 57.8951 75.1709 57.8951V59.8951ZM88.5151 61.8666C89.3183 62.2565 89.9921 62.9376 90.6043 63.8296C91.2195 64.7261 91.724 65.761 92.2327 66.8088L94.0319 65.9355C93.5354 64.9127 92.9679 63.7392 92.2533 62.6979C91.5355 61.652 90.6216 60.6659 89.3883 60.0674L88.5151 61.8666ZM92.2282 66.7995L92.3532 67.064L94.1614 66.2093L94.0364 65.9448L92.2282 66.7995ZM92.3578 67.0734C92.3549 67.0675 92.353 67.0594 92.3536 67.0503L94.3488 67.189C94.3725 66.8476 94.306 66.5069 94.1569 66.1998L92.3578 67.0734ZM92.3536 67.0503C92.3542 67.0413 92.3571 67.0345 92.3599 67.0304L94.0228 68.1416C94.2121 67.8584 94.3251 67.5304 94.3488 67.189L92.3536 67.0503ZM92.3599 67.0304C92.3625 67.0264 92.3642 67.026 92.3626 67.0268L93.2741 68.8071C93.5751 68.653 93.8336 68.4247 94.0228 68.1416L92.3599 67.0304ZM92.3626 67.0268C92.3609 67.0277 92.3574 67.0289 92.3527 67.0288L92.3017 69.0281C92.6386 69.0367 92.9733 68.9611 93.2741 68.8071L92.3626 67.0268ZM92.3536 67.0288C88.2312 66.9199 79.4379 66.5677 75.1709 66.5677V68.5677C79.4052 68.5677 88.1145 68.9176 92.3008 69.0281L92.3536 67.0288ZM75.1709 66.5677C70.9043 66.5677 62.1085 66.9285 57.982 67.0373L58.0347 69.0366C62.2295 68.926 70.9363 68.5677 75.1709 68.5677V66.5677ZM57.9829 67.0373C57.9782 67.0374 57.9746 67.0363 57.9729 67.0354L57.0614 68.8156C57.3623 68.9696 57.697 69.0452 58.0339 69.0366L57.9829 67.0373ZM57.9729 67.0354C57.9714 67.0346 57.973 67.0349 57.9757 67.0389L56.3128 68.1502C56.502 68.4332 56.7605 68.6615 57.0614 68.8156L57.9729 67.0354ZM57.9757 67.0389C57.9784 67.043 57.9813 67.0499 57.982 67.0589L55.9868 67.1976C56.0105 67.539 56.1235 67.8669 56.3128 68.1502L57.9757 67.0389ZM57.982 67.0589C57.9826 67.0679 57.9807 67.076 57.9778 67.082L56.1787 66.2084C56.0296 66.5154 55.963 66.8561 55.9868 67.1976L57.982 67.0589ZM57.9779 67.0817C58.0117 67.0121 58.0722 66.8917 58.121 66.7835L56.2981 65.9608C56.2644 66.0354 56.2323 66.0978 56.1785 66.2086L57.9779 67.0817ZM58.5845 75.0839C56.4732 75.3316 54.3484 75.4539 52.2218 75.45L52.2182 77.45C54.4238 77.454 56.6277 77.3272 58.8175 77.0702L58.5845 75.0839ZM52.22 75.45C51.6303 75.45 51.1101 75.366 50.7455 75.2069C50.4023 75.0571 50.289 74.8901 50.2511 74.7185L48.2981 75.1493C48.514 76.1282 49.2108 76.7193 49.9456 77.0399C50.6589 77.3512 51.4845 77.45 52.22 77.45V75.45ZM50.2503 74.7148C50.1034 74.0605 50.1319 73.7731 50.1911 73.4969L48.2355 73.0778C48.1072 73.6767 48.0983 74.2594 48.2989 75.153L50.2503 74.7148ZM50.1916 73.4946C50.1986 73.4615 50.2041 73.4395 50.2084 73.4244C50.2125 73.4095 50.2144 73.4057 50.2129 73.4093C50.2113 73.4132 50.2058 73.4258 50.1949 73.4434C50.1836 73.4615 50.1685 73.4819 50.1492 73.5023C50.1299 73.5227 50.1104 73.5388 50.0934 73.5505C50.0767 73.562 50.0656 73.5671 50.0641 73.5678C50.0628 73.5683 50.0712 73.5646 50.0925 73.5588C50.1139 73.5529 50.1464 73.5457 50.1926 73.5386L49.8919 71.5614C49.46 71.627 49.0267 71.7787 48.6966 72.1276C48.377 72.4652 48.2816 72.8605 48.2351 73.0801L50.1916 73.4946ZM50.1905 73.5389C51.5582 73.3338 52.2418 73.5565 54.9607 74.3375L55.5128 72.4152C52.9109 71.6678 51.7767 71.2787 49.8939 71.5611L50.1905 73.5389ZM54.9611 74.3376C56.63 74.8161 57.791 75.4427 58.4057 75.8952L59.5914 74.2846C58.7559 73.6695 57.3714 72.9481 55.5123 72.415L54.9611 74.3376ZM58.4123 75.9C58.1482 75.7089 58.1845 75.4466 58.202 75.3869C58.222 75.3187 58.3302 75.103 58.623 75.0801L58.7789 77.074C59.5393 77.0146 59.9782 76.4369 60.1211 75.95C60.2614 75.4717 60.2127 74.7341 59.5848 74.2797L58.4123 75.9ZM86.2671 85.0769C84.6951 85.2516 81.5068 85.1866 75.2084 85.1866V87.1866C81.3768 87.1866 84.7695 87.2556 86.488 87.0647L86.2671 85.0769ZM75.2084 85.1866C68.91 85.1866 65.7229 85.2516 64.151 85.0769L63.9301 87.0647C65.6486 87.2556 69.04 87.1866 75.2084 87.1866V85.1866ZM64.1483 85.0766C63.5022 85.0066 62.7632 84.6582 62.3769 84.2583C62.1904 84.0652 62.1665 83.9456 62.1648 83.9187C62.1643 83.9097 62.164 83.8947 62.1779 83.8636C62.1937 83.8282 62.2357 83.756 62.3427 83.655L60.9701 82.2003C60.4344 82.7058 60.1247 83.3393 60.1687 84.0435C60.2103 84.7079 60.5564 85.2524 60.9385 85.6479C61.6892 86.425 62.8811 86.951 63.9328 87.065L64.1483 85.0766ZM62.339 83.6585C62.6655 83.3535 63.3127 83.0067 64.3436 82.6866C65.3497 82.3742 66.6266 82.1156 68.1177 81.9271L67.867 79.9429C66.3014 80.1408 64.9023 80.419 63.7505 80.7766C62.6236 81.1265 61.6312 81.5829 60.9738 82.1968L62.339 83.6585ZM68.1177 81.9271C71.1803 81.54 72.4148 81.35 75.1959 81.35V79.35C72.2712 79.35 70.9178 79.5573 67.867 79.9429L68.1177 81.9271ZM75.1959 81.35C77.9858 81.35 79.0977 81.4659 82.2553 81.9258L82.5436 79.9467C79.3253 79.4779 78.1119 79.35 75.1959 79.35V81.35ZM82.2553 81.9258C83.8205 82.1538 85.1652 82.4347 86.192 82.7504C86.7055 82.9082 87.1203 83.069 87.4352 83.2263C87.7617 83.3893 87.9234 83.5204 87.9875 83.5927L89.4833 82.265C89.178 81.9211 88.7615 81.6531 88.3288 81.437C87.8846 81.2152 87.3593 81.0169 86.7797 80.8387C85.6202 80.4822 84.1664 80.183 82.5436 79.9467L82.2553 81.9258ZM87.9934 83.5992C88.1857 83.8121 88.1786 83.9243 88.1767 83.9497C88.1731 84.0001 88.1411 84.1215 87.9724 84.2994C87.6162 84.6751 86.9215 85.0067 86.2598 85.0851L86.4953 87.0712C87.5301 86.9485 88.6882 86.4513 89.4237 85.6755C89.8009 85.2778 90.1245 84.7428 90.1715 84.0943C90.2203 83.4208 89.959 82.7915 89.4774 82.2585L87.9934 83.5992ZM87.3776 86.0781V86.0708H85.3776V86.0781H87.3776ZM100.09 74.7211C100.053 74.8912 99.9416 75.0572 99.5974 75.2068C99.2316 75.3657 98.7101 75.4488 98.1218 75.4488V77.4488C98.8536 77.4488 99.6798 77.3515 100.394 77.0412C101.13 76.7215 101.831 76.1294 102.045 75.1442L100.09 74.7211ZM98.1216 75.4488C95.9518 75.4493 93.7838 75.3269 91.6286 75.0822L91.403 77.0695C93.6333 77.3226 95.8767 77.4493 98.122 77.4488L98.1216 75.4488ZM91.6078 75.0801C91.802 75.098 91.9395 75.1949 92.0136 75.2766C92.0827 75.3528 92.1087 75.4249 92.1188 75.472C92.1366 75.5556 92.13 75.7455 91.952 75.882L90.7345 74.2953C90.169 74.7292 90.0574 75.395 90.1627 75.8891C90.258 76.3357 90.6327 76.9985 91.4238 77.0716L91.6078 75.0801ZM91.9517 75.8823C92.539 75.4321 93.7018 74.8184 95.3811 74.3363L94.8291 72.4139C92.9853 72.9433 91.5753 73.6508 90.7349 74.295L91.9517 75.8823ZM95.3812 74.3362C98.0746 73.5626 99.3807 73.3393 100.427 73.5416L100.807 71.5779C99.2182 71.2708 97.4564 71.6593 94.829 72.414L95.3812 74.3362ZM100.427 73.5415C100.274 73.5119 100.195 73.4224 100.174 73.3932C100.163 73.377 100.156 73.3634 100.151 73.3509C100.147 73.3406 100.138 73.3127 100.133 73.2636L102.124 73.0747C102.096 72.7845 101.981 72.4798 101.797 72.2241C101.606 71.9585 101.282 71.6697 100.807 71.578L100.427 73.5415ZM100.14 73.3177C100.209 73.7832 100.193 74.2572 100.091 74.7172L102.043 75.1505C102.199 74.4507 102.224 73.7292 102.117 73.0206L100.14 73.3177ZM102.067 74.9339V74.9327H100.067V74.9339H102.067Z" fill="#0066FF" mask="url(#path-2-inside-1_2_2138)"/>
</svg>
