<svg width="151" height="150" viewBox="0 0 151 150" fill="none" xmlns="http://www.w3.org/2000/svg">
<circle cx="75.825" cy="75" r="74.5" stroke="#0066FF"/>
<path d="M66.075 68.5V68H65.575H57.0321L61.0535 63.9786L72.2335 52.7986L75.325 49.7071L78.4164 52.7986L89.5964 63.9786L93.6178 68H85.075H84.575V68.5V90.75H66.075V68.5ZM75.6785 55.5397L75.325 55.1861L74.9714 55.5397L67.2396 63.2714L66.3861 64.125H67.5932H69.95V86.375V86.875H70.45H80.2H80.7V86.375V64.125H83.0567H84.2638L83.4103 63.2714L75.6785 55.5397ZM66.6424 97.1925C67.0058 96.8291 67.4986 96.625 68.0125 96.625H82.6375C83.1513 96.625 83.6441 96.8291 84.0075 97.1925C84.3708 97.5558 84.575 98.0486 84.575 98.5625C84.575 99.0764 84.3708 99.5692 84.0075 99.9325C83.6441 100.296 83.1513 100.5 82.6375 100.5H68.0125C67.4986 100.5 67.0058 100.296 66.6424 99.9325C66.2791 99.5692 66.075 99.0764 66.075 98.5625C66.075 98.0486 66.2791 97.5558 66.6424 97.1925Z" fill="#0066FF" stroke="white"/>
</svg>
