<svg width="151" height="150" viewBox="0 0 151 150" fill="none" xmlns="http://www.w3.org/2000/svg">
<circle cx="75.6084" cy="75" r="74.5" fill="white" stroke="#0066FF"/>
<path d="M48.8177 57.2093C50.5524 55.4746 52.9051 54.5 55.3584 54.5H95.8584C97.0731 54.5 98.276 54.7393 99.3982 55.2041C100.52 55.669 101.54 56.3503 102.399 57.2093C103.258 58.0682 103.939 59.0879 104.404 60.2102C104.869 61.3324 105.108 62.5353 105.108 63.75V67H46.1084V63.75C46.1084 61.2967 47.0829 58.944 48.8177 57.2093ZM46.1084 86.25V72.5H105.108V86.25C105.108 87.4647 104.869 88.6676 104.404 89.7898C103.939 90.9121 103.258 91.9318 102.399 92.7907C101.54 93.6497 100.52 94.331 99.3982 94.7959C98.276 95.2607 97.0731 95.5 95.8584 95.5H55.3584C52.9051 95.5 50.5524 94.5254 48.8177 92.7907C47.0829 91.056 46.1084 88.7033 46.1084 86.25ZM94.3584 82H86.8584C86.1291 82 85.4296 82.2897 84.9139 82.8055C84.3981 83.3212 84.1084 84.0207 84.1084 84.75C84.1084 85.4793 84.3981 86.1788 84.9139 86.6945C85.4296 87.2103 86.1291 87.5 86.8584 87.5H94.3584C95.0877 87.5 95.7872 87.2103 96.3029 86.6945C96.8187 86.1788 97.1084 85.4793 97.1084 84.75C97.1084 84.0207 96.8187 83.3212 96.3029 82.8055C95.7872 82.2897 95.0877 82 94.3584 82Z" fill="#0066FF" stroke="#0066FF"/>
</svg>
