<svg width="151" height="150" viewBox="0 0 151 150" fill="none" xmlns="http://www.w3.org/2000/svg">
<circle cx="75.3917" cy="75" r="74.5" fill="white" stroke="#0066FF"/>
<path d="M83.1378 61.6294L83.1377 61.6296L83.1488 61.6356C83.3543 61.7479 83.5349 61.9005 83.6799 62.0843C83.8248 62.2682 83.9311 62.4794 83.9922 62.7053C84.0534 62.9311 84.0682 63.167 84.0358 63.3988C84.0033 63.6305 83.9244 63.8534 83.8035 64.0538L83.8035 64.0538L83.7989 64.0617L70.7112 86.7062C70.7108 86.7068 70.7104 86.7074 70.7101 86.708C70.5509 86.9772 70.3246 87.2005 70.0532 87.3562C69.7812 87.5123 69.4733 87.595 69.1597 87.5964L69.1501 87.5964L69.1404 87.5968C68.8399 87.6097 68.5423 87.5329 68.2855 87.3763L68.2789 87.3723L68.2721 87.3684C68.0685 87.2528 67.8899 87.098 67.7465 86.913C67.6031 86.728 67.4978 86.5165 67.4367 86.2906C67.3755 86.0648 67.3598 85.8291 67.3902 85.5971C67.4207 85.3651 67.4969 85.1414 67.6143 84.939L67.6147 84.9383L80.7047 62.2899L80.7064 62.2869C80.8221 62.0835 80.977 61.9049 81.1621 61.7616C81.3472 61.6183 81.5589 61.513 81.7849 61.4519C82.011 61.3907 82.2469 61.3749 82.4791 61.4054C82.7113 61.4359 82.9352 61.512 83.1378 61.6294ZM72.8422 68.7272L72.8414 68.7474L72.8423 68.7677C72.9261 70.7292 72.2283 72.6439 70.9018 74.092C69.5804 75.5346 67.7425 76.3968 65.7885 76.4915C63.8309 76.3967 61.989 75.5353 60.6617 74.0934C59.3293 72.6459 58.6235 70.7307 58.6981 68.7652L58.6988 68.7474L58.6982 68.7296C58.6329 66.7701 59.3428 64.8637 60.6743 63.4236C62.0005 61.9892 63.8371 61.1326 65.7885 61.0377C67.7363 61.1325 69.5688 61.99 70.8892 63.425C72.2148 64.8657 72.9167 66.7716 72.8422 68.7272ZM65.731 72.9078L65.7885 72.9144L65.846 72.9078C66.8519 72.7912 67.7722 72.2855 68.4097 71.4989C69.0367 70.7252 69.341 69.7402 69.2606 68.749C69.3521 67.754 69.0513 66.7617 68.4213 65.9843C67.7808 65.194 66.8525 64.6904 65.8407 64.5842L65.7885 64.5788L65.7363 64.5842C64.7228 64.6906 63.7919 65.1919 63.1457 65.9797C62.5086 66.7561 62.1987 67.7492 62.2801 68.7489C62.2095 69.7449 62.5229 70.7308 63.157 71.5036C63.8003 72.2878 64.7233 72.7912 65.731 72.9078ZM78.608 80.2384L78.6089 80.2182L78.6081 80.198C78.5335 78.2423 79.2355 76.3364 80.5611 74.8958C81.8815 73.4608 83.714 72.6033 85.6618 72.5085C87.6132 72.6034 89.4497 73.4599 90.776 74.8944C92.1074 76.3344 92.8174 78.2408 92.7521 80.2004L92.7515 80.2182L92.7522 80.236C92.8267 82.2014 92.1209 84.1167 90.7885 85.5642C89.4612 87.0061 87.6194 87.8675 85.6618 87.9623C83.7078 87.8676 81.8699 87.0054 80.5484 85.5628C79.2219 84.1147 78.5241 82.1999 78.608 80.2384ZM85.6042 84.3785L85.6617 84.3852L85.7192 84.3786C86.727 84.262 87.65 83.7586 88.2933 82.9744C88.9274 82.2016 89.2408 81.2157 89.1701 80.2197C89.2516 79.2199 88.9416 78.2269 88.3046 77.4505C87.6583 76.6627 86.7275 76.1614 85.714 76.055L85.6591 76.0493L85.6042 76.0556C84.5983 76.1722 83.678 76.6779 83.0406 77.4645C82.413 78.2389 82.1087 79.2249 82.1899 80.2171C82.1087 81.2092 82.413 82.1952 83.0406 82.9697C83.678 83.7563 84.5983 84.262 85.6042 84.3785Z" fill="#0066FF" stroke="#0066FF"/>
<path d="M75.7093 47.5139L75.7251 47.5144L75.7408 47.5139C83.1434 47.2809 90.336 49.9937 95.7391 55.0565C101.138 60.1155 104.309 67.1078 104.558 74.5C104.309 81.8922 101.138 88.8845 95.7391 93.9435C90.336 99.0063 83.1434 101.719 75.7408 101.486L75.7251 101.486L75.7093 101.486C68.3067 101.719 61.1141 99.0063 55.711 93.9435C50.3119 88.8845 47.1406 81.8922 46.892 74.5C47.1406 67.1078 50.3119 60.1155 55.711 55.0565C61.1141 49.9937 68.3067 47.2809 75.7093 47.5139ZM50.4755 74.4796L50.4746 74.5L50.4755 74.5204C50.7385 80.9652 53.5446 87.0436 58.2799 91.4258C63.0107 95.804 69.2823 98.1331 75.7251 97.9052C82.1678 98.1331 88.4394 95.804 93.1702 91.4258C97.9055 87.0436 100.712 80.9652 100.975 74.5204L100.975 74.5L100.975 74.4796C100.712 68.0348 97.9055 61.9564 93.1702 57.5742C88.4394 53.196 82.1678 50.8669 75.7251 51.0948C69.2823 50.8669 63.0107 53.196 58.2799 57.5742C53.5446 61.9564 50.7385 68.0348 50.4755 74.4796Z" fill="#0066FF" stroke="#0066FF"/>
</svg>
